<?xml version="1.0" encoding="UTF-8"?>
<svg width="17px" height="18px" viewBox="0 0 17 18" version="1.1" xmlns="http://www.w3.org/2000/svg" xmlns:xlink="http://www.w3.org/1999/xlink">
    <!-- Generator: Sketch 41 (35326) - http://www.bohemiancoding.com/sketch -->
    <title>Shape</title>
    <desc>Created with Sketch.</desc>
    <defs></defs>
    <g id="Page-1" stroke="none" stroke-width="1" fill="none" fill-rule="evenodd">
        <g id="Home" transform="translate(-52.000000, -472.000000)" fill="#D9D9D9">
            <path d="M67.3627269,481.935628 C68.1769167,481.970736 68.8676204,481.364612 68.9032731,480.581686 C68.9389259,479.79876 68.3664352,479.094901 67.5516157,479.061058 L62.1423102,478.419157 C62.1423102,478.419157 63.2695833,476.637157 63.2695833,473.996884 C63.2695833,472.236826 61.9390972,472 61.156625,472 C60.5410833,471.999777 60.3753333,473.126934 60.3753333,473.126934 L60.3740741,473.126934 C60.2346898,473.849686 60.0531991,474.480876 59.4225463,475.642992 C58.7165741,476.945537 57.7551296,476.823331 56.6326574,477.983512 C56.4345602,478.187835 56.1683843,478.525074 55.9089769,478.940041 C55.8878056,478.961983 55.8680509,478.992702 55.8489259,479.035917 C55.825787,479.087388 55.7980833,479.123091 55.7736852,479.170694 C55.730713,479.245298 55.6884491,479.319901 55.6468935,479.398223 C54.9521759,480.054777 53.8698426,479.987686 53.4089537,479.987686 C52.4845,479.987686 52.0003148,480.495331 52.0003148,481.318942 L52,487.405322 C52,488.329347 52.4000509,488.641 53.4090324,488.641 L54.8176713,488.641 C55.5268704,488.641 56.0822037,489.025248 56.9307083,489.306628 C58.0929259,489.687157 59.8286574,489.972777 62.8186111,489.972777 C63.3415185,489.972777 64.9633657,489.974636 64.9633657,489.974636 C65.4599074,489.974636 65.8587778,489.760273 66.1465972,489.50143 C66.2561528,489.403025 66.3704306,489.260066 66.4193056,488.98114 C66.4272546,488.937926 66.4357546,488.756736 66.4344954,488.732264 C66.472037,487.934314 65.9616435,487.645421 65.6724861,487.554455 C65.6803565,487.551926 65.675162,487.545083 65.6909028,487.545678 L66.6088241,487.584504 C67.4236435,487.619612 68.2279167,487.064884 68.2279167,486.121521 C68.2279167,485.339264 67.5569676,484.787587 66.7448241,484.750025 L67.2315278,484.771372 C68.0462685,484.805215 68.7350046,484.199091 68.7727037,483.416165 C68.8081991,482.633314 68.1769167,481.97081 67.3627269,481.935628 Z" id="Shape"></path>
        </g>
    </g>
</svg>