<?xml version="1.0" encoding="UTF-8"?>
<svg width="47px" height="47px" viewBox="0 0 47 47" version="1.1" xmlns="http://www.w3.org/2000/svg" xmlns:xlink="http://www.w3.org/1999/xlink">
    <!-- Generator: Sketch 41 (35326) - http://www.bohemiancoding.com/sketch -->
    <title>Group 4 Copy 3</title>
    <desc>Created with Sketch.</desc>
    <defs>
        <linearGradient x1="88.7087545%" y1="5.53952801%" x2="9.72554907%" y2="100%" id="linearGradient-1">
            <stop stop-color="#FFAC4F" offset="0%"></stop>
            <stop stop-color="#FF69B5" offset="100%"></stop>
        </linearGradient>
    </defs>
    <g id="Page-1" stroke="none" stroke-width="1" fill="none" fill-rule="evenodd">
        <g id="Home" transform="translate(-477.000000, -884.000000)">
            <g id="Group-4-Copy-3" transform="translate(477.000000, 884.000000)">
                <circle id="Oval" fill="url(#linearGradient-1)" cx="23.5" cy="23.5" r="23.5"></circle>
                <g id="sent-mail" transform="translate(13.000000, 16.000000)" fill="#FFFFFF">
                    <g id="Capa_1">
                        <path d="M19.8684776,0.103797428 C19.7795821,0.0240096463 19.6530746,0.00549839228 19.5458507,0.0563890675 L0.172716418,9.26754019 C0.0684179104,9.31714791 0.00125373134,9.42363344 0,9.54129904 C-0.00125373134,9.65896463 0.0637014925,9.7669164 0.166985075,9.81878457 L5.64955224,12.572135 C5.75008955,12.6226592 5.86997015,12.6112347 5.95976119,12.5425659 L11.2903284,8.46556913 L7.10561194,12.8703923 C7.04591045,12.9332572 7.01546269,13.0193376 7.02202985,13.106701 L7.43868657,18.6594051 C7.4479403,18.7824469 7.52853731,18.8876495 7.64310448,18.9261994 C7.67373134,18.936463 7.70519403,18.9414727 7.73629851,18.9414727 C7.82161194,18.9414727 7.90459701,18.9040225 7.96232836,18.8355981 L10.8722985,15.3849293 L14.4696119,17.1438039 C14.5477015,17.1819871 14.6380896,17.1835756 14.7174328,17.1482637 C14.7967761,17.1128907 14.857194,17.0440997 14.8831045,16.9596688 L19.9564179,0.42496463 C19.9918806,0.309498392 19.9573134,0.183585209 19.8684776,0.103797428 Z" id="Shape"></path>
                    </g>
                </g>
            </g>
        </g>
    </g>
</svg>